<mxfile host="app.diagrams.net" modified="2024-10-11T00:32:31.424Z" agent="Mozilla/5.0 (Windows NT 10.0; Win64; x64) AppleWebKit/537.36 (KHTML, like Gecko) Chrome/129.0.0.0 Safari/537.36" etag="sV5WN5V9pRQfe1hpZ7de" version="24.2.7" type="device">
  <diagram name="PÃ¡gina-1" id="dn11zzqn9MYub6EMZHC1">
    <mxGraphModel dx="2391" dy="2283" grid="1" gridSize="10" guides="1" tooltips="1" connect="1" arrows="1" fold="1" page="1" pageScale="1" pageWidth="827" pageHeight="1169" math="0" shadow="0">
      <root>
        <mxCell id="0" />
        <mxCell id="1" parent="0" />
        <mxCell id="rpQ2N66B4N2WtZ1bZjir-17" value="&lt;span style=&quot;color: rgba(0, 0, 0, 0); font-family: monospace; font-size: 0px; text-align: start; text-wrap: nowrap;&quot;&gt;%3CmxGraphModel%3E%3Croot%3E%3CmxCell%20id%3D%220%22%2F%3E%3CmxCell%20id%3D%221%22%20parent%3D%220%22%2F%3E%3CmxCell%20id%3D%222%22%20value%3D%22cajero%20automatico%22%20style%3D%22text%3Bhtml%3D1%3Balign%3Dcenter%3BverticalAlign%3Dmiddle%3Bresizable%3D0%3Bpoints%3D%5B%5D%3Bautosize%3D1%3BstrokeColor%3Dnone%3BfillColor%3Dnone%3B%22%20vertex%3D%221%22%20parent%3D%221%22%3E%3CmxGeometry%20x%3D%22470%22%20y%3D%22-70%22%20width%3D%22120%22%20height%3D%2230%22%20as%3D%22geometry%22%2F%3E%3C%2FmxCell%3E%3C%2Froot%3E%3C%2FmxGraphModel%3E&lt;/span&gt;" style="rounded=0;whiteSpace=wrap;html=1;movable=0;resizable=0;rotatable=0;deletable=0;editable=0;locked=1;connectable=0;" vertex="1" parent="1">
          <mxGeometry x="150" width="1970" height="660" as="geometry" />
        </mxCell>
        <mxCell id="rpQ2N66B4N2WtZ1bZjir-1" value="Usuario&amp;nbsp;" style="rounded=0;whiteSpace=wrap;html=1;" vertex="1" parent="1">
          <mxGeometry x="20" y="170" width="120" height="60" as="geometry" />
        </mxCell>
        <mxCell id="rpQ2N66B4N2WtZ1bZjir-2" value="autenticacion&amp;nbsp;" style="rounded=0;whiteSpace=wrap;html=1;" vertex="1" parent="1">
          <mxGeometry x="210" y="160" width="120" height="60" as="geometry" />
        </mxCell>
        <mxCell id="rpQ2N66B4N2WtZ1bZjir-4" value="" style="endArrow=classic;startArrow=classic;html=1;rounded=0;exitX=1;exitY=0.5;exitDx=0;exitDy=0;" edge="1" parent="1" source="rpQ2N66B4N2WtZ1bZjir-1">
          <mxGeometry width="50" height="50" relative="1" as="geometry">
            <mxPoint x="140" y="210" as="sourcePoint" />
            <mxPoint x="210" y="200" as="targetPoint" />
          </mxGeometry>
        </mxCell>
        <mxCell id="rpQ2N66B4N2WtZ1bZjir-6" value="" style="endArrow=classic;html=1;rounded=0;exitX=0.992;exitY=0.617;exitDx=0;exitDy=0;exitPerimeter=0;" edge="1" parent="1" source="rpQ2N66B4N2WtZ1bZjir-2">
          <mxGeometry width="50" height="50" relative="1" as="geometry">
            <mxPoint x="430" y="200" as="sourcePoint" />
            <mxPoint x="530" y="200" as="targetPoint" />
          </mxGeometry>
        </mxCell>
        <mxCell id="rpQ2N66B4N2WtZ1bZjir-7" value="VALIDACION" style="rhombus;whiteSpace=wrap;html=1;" vertex="1" parent="1">
          <mxGeometry x="520" y="160" width="80" height="80" as="geometry" />
        </mxCell>
        <mxCell id="rpQ2N66B4N2WtZ1bZjir-9" value="no" style="text;html=1;align=center;verticalAlign=middle;resizable=0;points=[];autosize=1;strokeColor=none;fillColor=none;" vertex="1" parent="1">
          <mxGeometry x="550" y="238" width="40" height="30" as="geometry" />
        </mxCell>
        <mxCell id="rpQ2N66B4N2WtZ1bZjir-10" value="" style="endArrow=classic;html=1;rounded=0;exitX=1;exitY=0.5;exitDx=0;exitDy=0;entryX=0;entryY=0.5;entryDx=0;entryDy=0;" edge="1" parent="1" source="rpQ2N66B4N2WtZ1bZjir-7" target="rpQ2N66B4N2WtZ1bZjir-30">
          <mxGeometry width="50" height="50" relative="1" as="geometry">
            <mxPoint x="600" y="210" as="sourcePoint" />
            <mxPoint x="730" y="200" as="targetPoint" />
          </mxGeometry>
        </mxCell>
        <mxCell id="rpQ2N66B4N2WtZ1bZjir-11" value="si" style="text;html=1;align=center;verticalAlign=middle;resizable=0;points=[];autosize=1;strokeColor=none;fillColor=none;" vertex="1" parent="1">
          <mxGeometry x="590" y="170" width="30" height="30" as="geometry" />
        </mxCell>
        <mxCell id="rpQ2N66B4N2WtZ1bZjir-12" value="" style="endArrow=none;html=1;rounded=0;" edge="1" parent="1">
          <mxGeometry width="50" height="50" relative="1" as="geometry">
            <mxPoint x="560" y="360" as="sourcePoint" />
            <mxPoint x="560" y="240" as="targetPoint" />
          </mxGeometry>
        </mxCell>
        <mxCell id="rpQ2N66B4N2WtZ1bZjir-13" value="" style="endArrow=none;html=1;rounded=0;" edge="1" parent="1">
          <mxGeometry width="50" height="50" relative="1" as="geometry">
            <mxPoint x="260" y="360" as="sourcePoint" />
            <mxPoint x="560" y="360" as="targetPoint" />
          </mxGeometry>
        </mxCell>
        <mxCell id="rpQ2N66B4N2WtZ1bZjir-19" value="Text" style="edgeLabel;html=1;align=center;verticalAlign=middle;resizable=0;points=[];" vertex="1" connectable="0" parent="rpQ2N66B4N2WtZ1bZjir-13">
          <mxGeometry x="0.0133" y="-1" relative="1" as="geometry">
            <mxPoint as="offset" />
          </mxGeometry>
        </mxCell>
        <mxCell id="rpQ2N66B4N2WtZ1bZjir-21" value="Text" style="edgeLabel;html=1;align=center;verticalAlign=middle;resizable=0;points=[];" vertex="1" connectable="0" parent="rpQ2N66B4N2WtZ1bZjir-13">
          <mxGeometry x="-0.14" y="4" relative="1" as="geometry">
            <mxPoint as="offset" />
          </mxGeometry>
        </mxCell>
        <mxCell id="rpQ2N66B4N2WtZ1bZjir-15" value="" style="endArrow=classic;html=1;rounded=0;entryX=0.425;entryY=1.033;entryDx=0;entryDy=0;entryPerimeter=0;" edge="1" parent="1" target="rpQ2N66B4N2WtZ1bZjir-2">
          <mxGeometry width="50" height="50" relative="1" as="geometry">
            <mxPoint x="261" y="360" as="sourcePoint" />
            <mxPoint x="440" y="310" as="targetPoint" />
          </mxGeometry>
        </mxCell>
        <mxCell id="rpQ2N66B4N2WtZ1bZjir-16" value="Actor" style="shape=umlActor;verticalLabelPosition=bottom;verticalAlign=top;html=1;outlineConnect=0;" vertex="1" parent="1">
          <mxGeometry x="65" y="240" width="30" height="60" as="geometry" />
        </mxCell>
        <mxCell id="rpQ2N66B4N2WtZ1bZjir-18" value="cajero automatico" style="text;html=1;align=center;verticalAlign=middle;resizable=0;points=[];autosize=1;strokeColor=none;fillColor=none;" vertex="1" parent="1">
          <mxGeometry x="1130" y="-60" width="120" height="30" as="geometry" />
        </mxCell>
        <mxCell id="rpQ2N66B4N2WtZ1bZjir-20" value="intento&amp;lt;=3" style="rhombus;whiteSpace=wrap;html=1;" vertex="1" parent="1">
          <mxGeometry x="360" y="320" width="80" height="80" as="geometry" />
        </mxCell>
        <mxCell id="rpQ2N66B4N2WtZ1bZjir-22" value="NO" style="text;html=1;align=center;verticalAlign=middle;resizable=0;points=[];autosize=1;strokeColor=none;fillColor=none;" vertex="1" parent="1">
          <mxGeometry x="320" y="340" width="40" height="30" as="geometry" />
        </mxCell>
        <mxCell id="rpQ2N66B4N2WtZ1bZjir-25" value="" style="endArrow=none;html=1;rounded=0;" edge="1" parent="1">
          <mxGeometry width="50" height="50" relative="1" as="geometry">
            <mxPoint x="400" y="630" as="sourcePoint" />
            <mxPoint x="400" y="400" as="targetPoint" />
          </mxGeometry>
        </mxCell>
        <mxCell id="rpQ2N66B4N2WtZ1bZjir-26" value="SALIDA&amp;nbsp;" style="rounded=0;whiteSpace=wrap;html=1;" vertex="1" parent="1">
          <mxGeometry x="1160" y="780" width="120" height="60" as="geometry" />
        </mxCell>
        <mxCell id="rpQ2N66B4N2WtZ1bZjir-27" value="" style="endArrow=none;dashed=1;html=1;dashPattern=1 3;strokeWidth=2;rounded=0;entryX=0.261;entryY=-0.002;entryDx=0;entryDy=0;entryPerimeter=0;" edge="1" parent="1" target="rpQ2N66B4N2WtZ1bZjir-17">
          <mxGeometry width="50" height="50" relative="1" as="geometry">
            <mxPoint x="663" y="660" as="sourcePoint" />
            <mxPoint x="440" y="280" as="targetPoint" />
            <Array as="points" />
          </mxGeometry>
        </mxCell>
        <mxCell id="rpQ2N66B4N2WtZ1bZjir-28" value="AUTENTICACION&amp;nbsp;" style="text;html=1;align=center;verticalAlign=middle;resizable=0;points=[];autosize=1;strokeColor=none;fillColor=none;" vertex="1" parent="1">
          <mxGeometry x="340" width="120" height="30" as="geometry" />
        </mxCell>
        <mxCell id="rpQ2N66B4N2WtZ1bZjir-29" value="MENU APP&amp;nbsp;" style="text;html=1;align=center;verticalAlign=middle;resizable=0;points=[];autosize=1;strokeColor=none;fillColor=none;" vertex="1" parent="1">
          <mxGeometry x="860" width="90" height="30" as="geometry" />
        </mxCell>
        <mxCell id="rpQ2N66B4N2WtZ1bZjir-30" value="MENU" style="rounded=0;whiteSpace=wrap;html=1;" vertex="1" parent="1">
          <mxGeometry x="740" y="170" width="120" height="60" as="geometry" />
        </mxCell>
        <mxCell id="rpQ2N66B4N2WtZ1bZjir-32" value="" style="endArrow=none;html=1;rounded=0;" edge="1" parent="1">
          <mxGeometry width="50" height="50" relative="1" as="geometry">
            <mxPoint x="790" y="170" as="sourcePoint" />
            <mxPoint x="790" y="80" as="targetPoint" />
          </mxGeometry>
        </mxCell>
        <mxCell id="rpQ2N66B4N2WtZ1bZjir-33" value="" style="endArrow=classic;html=1;rounded=0;" edge="1" parent="1">
          <mxGeometry width="50" height="50" relative="1" as="geometry">
            <mxPoint x="790" y="80" as="sourcePoint" />
            <mxPoint x="950" y="80" as="targetPoint" />
          </mxGeometry>
        </mxCell>
        <mxCell id="rpQ2N66B4N2WtZ1bZjir-34" value="AUGESTION&amp;nbsp;" style="rounded=0;whiteSpace=wrap;html=1;fillColor=#FF430A;" vertex="1" parent="1">
          <mxGeometry x="950" y="50" width="160" height="60" as="geometry" />
        </mxCell>
        <mxCell id="rpQ2N66B4N2WtZ1bZjir-35" value="" style="endArrow=classic;html=1;rounded=0;" edge="1" parent="1">
          <mxGeometry width="50" height="50" relative="1" as="geometry">
            <mxPoint x="860" y="200" as="sourcePoint" />
            <mxPoint x="950" y="200" as="targetPoint" />
          </mxGeometry>
        </mxCell>
        <mxCell id="rpQ2N66B4N2WtZ1bZjir-36" value="CONSULTA" style="rounded=0;whiteSpace=wrap;html=1;fillColor=#7A95FF;" vertex="1" parent="1">
          <mxGeometry x="950" y="170" width="160" height="60" as="geometry" />
        </mxCell>
        <mxCell id="rpQ2N66B4N2WtZ1bZjir-37" value="" style="endArrow=classic;html=1;rounded=0;" edge="1" parent="1">
          <mxGeometry width="50" height="50" relative="1" as="geometry">
            <mxPoint x="790" y="330" as="sourcePoint" />
            <mxPoint x="950" y="330" as="targetPoint" />
          </mxGeometry>
        </mxCell>
        <mxCell id="rpQ2N66B4N2WtZ1bZjir-38" value="" style="endArrow=none;html=1;rounded=0;entryX=0.392;entryY=1;entryDx=0;entryDy=0;entryPerimeter=0;" edge="1" parent="1" target="rpQ2N66B4N2WtZ1bZjir-30">
          <mxGeometry width="50" height="50" relative="1" as="geometry">
            <mxPoint x="787" y="330" as="sourcePoint" />
            <mxPoint x="790" y="240" as="targetPoint" />
          </mxGeometry>
        </mxCell>
        <mxCell id="rpQ2N66B4N2WtZ1bZjir-39" value="TRANSACCIONALIDAD" style="rounded=0;whiteSpace=wrap;html=1;" vertex="1" parent="1">
          <mxGeometry x="950" y="290" width="170" height="70" as="geometry" />
        </mxCell>
        <mxCell id="rpQ2N66B4N2WtZ1bZjir-42" value="" style="endArrow=none;html=1;rounded=0;" edge="1" parent="1">
          <mxGeometry width="50" height="50" relative="1" as="geometry">
            <mxPoint x="700" y="710" as="sourcePoint" />
            <mxPoint x="700" y="710" as="targetPoint" />
          </mxGeometry>
        </mxCell>
        <mxCell id="rpQ2N66B4N2WtZ1bZjir-43" value="" style="endArrow=none;dashed=1;html=1;dashPattern=1 3;strokeWidth=2;rounded=0;" edge="1" parent="1">
          <mxGeometry width="50" height="50" relative="1" as="geometry">
            <mxPoint x="1260" y="660" as="sourcePoint" />
            <mxPoint x="1250" as="targetPoint" />
          </mxGeometry>
        </mxCell>
        <mxCell id="rpQ2N66B4N2WtZ1bZjir-44" value="SALIDA SEGURA" style="rounded=0;whiteSpace=wrap;html=1;" vertex="1" parent="1">
          <mxGeometry x="950" y="450" width="180" height="60" as="geometry" />
        </mxCell>
        <mxCell id="rpQ2N66B4N2WtZ1bZjir-45" value="" style="endArrow=none;html=1;rounded=0;" edge="1" parent="1">
          <mxGeometry width="50" height="50" relative="1" as="geometry">
            <mxPoint x="760" y="480" as="sourcePoint" />
            <mxPoint x="760" y="230" as="targetPoint" />
          </mxGeometry>
        </mxCell>
        <mxCell id="rpQ2N66B4N2WtZ1bZjir-46" value="" style="endArrow=classic;html=1;rounded=0;" edge="1" parent="1">
          <mxGeometry width="50" height="50" relative="1" as="geometry">
            <mxPoint x="760" y="480" as="sourcePoint" />
            <mxPoint x="950" y="480" as="targetPoint" />
          </mxGeometry>
        </mxCell>
        <mxCell id="rpQ2N66B4N2WtZ1bZjir-47" value="" style="endArrow=none;html=1;rounded=0;" edge="1" parent="1">
          <mxGeometry width="50" height="50" relative="1" as="geometry">
            <mxPoint x="1030" y="650" as="sourcePoint" />
            <mxPoint x="1030" y="510" as="targetPoint" />
          </mxGeometry>
        </mxCell>
        <mxCell id="rpQ2N66B4N2WtZ1bZjir-49" value="" style="endArrow=none;html=1;rounded=0;fillColor=#F8FF30;strokeColor=#FF430A;" edge="1" parent="1">
          <mxGeometry width="50" height="50" relative="1" as="geometry">
            <mxPoint x="1110" y="80" as="sourcePoint" />
            <mxPoint x="1320" y="80" as="targetPoint" />
          </mxGeometry>
        </mxCell>
        <mxCell id="rpQ2N66B4N2WtZ1bZjir-50" value="AUTEGESTION" style="text;html=1;align=center;verticalAlign=middle;resizable=0;points=[];autosize=1;strokeColor=none;fillColor=none;" vertex="1" parent="1">
          <mxGeometry x="1380" width="110" height="30" as="geometry" />
        </mxCell>
        <mxCell id="rpQ2N66B4N2WtZ1bZjir-57" value="" style="endArrow=none;dashed=1;html=1;dashPattern=1 3;strokeWidth=2;rounded=0;entryX=0.725;entryY=-0.002;entryDx=0;entryDy=0;entryPerimeter=0;exitX=0.729;exitY=1.002;exitDx=0;exitDy=0;exitPerimeter=0;" edge="1" parent="1" source="rpQ2N66B4N2WtZ1bZjir-17" target="rpQ2N66B4N2WtZ1bZjir-17">
          <mxGeometry width="50" height="50" relative="1" as="geometry">
            <mxPoint x="1270" y="670" as="sourcePoint" />
            <mxPoint x="1260" y="10" as="targetPoint" />
          </mxGeometry>
        </mxCell>
        <mxCell id="rpQ2N66B4N2WtZ1bZjir-58" value="" style="endArrow=none;dashed=1;html=1;dashPattern=1 3;strokeWidth=2;rounded=0;exitX=0.875;exitY=0.997;exitDx=0;exitDy=0;exitPerimeter=0;" edge="1" parent="1" source="rpQ2N66B4N2WtZ1bZjir-17">
          <mxGeometry width="50" height="50" relative="1" as="geometry">
            <mxPoint x="1880" y="660" as="sourcePoint" />
            <mxPoint x="1880" as="targetPoint" />
          </mxGeometry>
        </mxCell>
        <mxCell id="rpQ2N66B4N2WtZ1bZjir-59" value="CONSULTA CONTRASEÃA" style="shape=step;perimeter=stepPerimeter;whiteSpace=wrap;html=1;fixedSize=1;" vertex="1" parent="1">
          <mxGeometry x="1360" y="110" width="120" height="80" as="geometry" />
        </mxCell>
        <mxCell id="rpQ2N66B4N2WtZ1bZjir-60" value="CAMBIO DE CONTRASEÃA" style="shape=step;perimeter=stepPerimeter;whiteSpace=wrap;html=1;fixedSize=1;" vertex="1" parent="1">
          <mxGeometry x="1360" y="280" width="120" height="80" as="geometry" />
        </mxCell>
        <mxCell id="rpQ2N66B4N2WtZ1bZjir-61" value="&lt;font style=&quot;font-size: 11px;&quot;&gt;CAMBIO DE DATOS Â´PERSONALES&lt;/font&gt;" style="shape=step;perimeter=stepPerimeter;whiteSpace=wrap;html=1;fixedSize=1;" vertex="1" parent="1">
          <mxGeometry x="1360" y="460" width="130" height="80" as="geometry" />
        </mxCell>
        <mxCell id="rpQ2N66B4N2WtZ1bZjir-64" value="" style="endArrow=none;html=1;rounded=0;exitX=0.599;exitY=0.879;exitDx=0;exitDy=0;exitPerimeter=0;strokeColor=#FF430A;" edge="1" parent="1" source="rpQ2N66B4N2WtZ1bZjir-17">
          <mxGeometry width="50" height="50" relative="1" as="geometry">
            <mxPoint x="1270" y="140" as="sourcePoint" />
            <mxPoint x="1320" y="80" as="targetPoint" />
          </mxGeometry>
        </mxCell>
        <mxCell id="rpQ2N66B4N2WtZ1bZjir-65" value="" style="endArrow=classic;html=1;rounded=0;entryX=0;entryY=0.5;entryDx=0;entryDy=0;strokeColor=#FF430A;" edge="1" parent="1" target="rpQ2N66B4N2WtZ1bZjir-59">
          <mxGeometry width="50" height="50" relative="1" as="geometry">
            <mxPoint x="1320" y="150" as="sourcePoint" />
            <mxPoint x="1370" y="100" as="targetPoint" />
          </mxGeometry>
        </mxCell>
        <mxCell id="rpQ2N66B4N2WtZ1bZjir-66" value="" style="endArrow=classic;html=1;rounded=0;entryX=0;entryY=0.5;entryDx=0;entryDy=0;" edge="1" parent="1" target="rpQ2N66B4N2WtZ1bZjir-60">
          <mxGeometry width="50" height="50" relative="1" as="geometry">
            <mxPoint x="1320" y="320" as="sourcePoint" />
            <mxPoint x="1380" y="270" as="targetPoint" />
          </mxGeometry>
        </mxCell>
        <mxCell id="rpQ2N66B4N2WtZ1bZjir-67" value="" style="endArrow=classic;html=1;rounded=0;entryX=0;entryY=0.5;entryDx=0;entryDy=0;" edge="1" parent="1" target="rpQ2N66B4N2WtZ1bZjir-61">
          <mxGeometry width="50" height="50" relative="1" as="geometry">
            <mxPoint x="1330" y="500" as="sourcePoint" />
            <mxPoint x="1380" y="450" as="targetPoint" />
          </mxGeometry>
        </mxCell>
        <mxCell id="rpQ2N66B4N2WtZ1bZjir-68" value="" style="endArrow=none;html=1;rounded=0;strokeColor=#7A95FF;" edge="1" parent="1">
          <mxGeometry width="50" height="50" relative="1" as="geometry">
            <mxPoint x="1110" y="200" as="sourcePoint" />
            <mxPoint x="1670" y="200" as="targetPoint" />
          </mxGeometry>
        </mxCell>
        <mxCell id="rpQ2N66B4N2WtZ1bZjir-72" value="PRODUCTO" style="rounded=0;whiteSpace=wrap;html=1;" vertex="1" parent="1">
          <mxGeometry x="1660" y="170" width="120" height="60" as="geometry" />
        </mxCell>
        <mxCell id="rpQ2N66B4N2WtZ1bZjir-73" value="" style="endArrow=none;html=1;rounded=0;" edge="1" parent="1">
          <mxGeometry width="50" height="50" relative="1" as="geometry">
            <mxPoint x="1720" y="300" as="sourcePoint" />
            <mxPoint x="1720" y="230" as="targetPoint" />
          </mxGeometry>
        </mxCell>
        <mxCell id="rpQ2N66B4N2WtZ1bZjir-74" value="AHORRO" style="shape=parallelogram;perimeter=parallelogramPerimeter;whiteSpace=wrap;html=1;fixedSize=1;" vertex="1" parent="1">
          <mxGeometry x="1600" y="410" width="110" height="50" as="geometry" />
        </mxCell>
        <mxCell id="rpQ2N66B4N2WtZ1bZjir-75" value="CUENTA" style="shape=parallelogram;perimeter=parallelogramPerimeter;whiteSpace=wrap;html=1;fixedSize=1;" vertex="1" parent="1">
          <mxGeometry x="1760" y="410" width="110" height="50" as="geometry" />
        </mxCell>
        <mxCell id="rpQ2N66B4N2WtZ1bZjir-80" value="DECISION" style="rhombus;whiteSpace=wrap;html=1;" vertex="1" parent="1">
          <mxGeometry x="1680" y="280" width="80" height="80" as="geometry" />
        </mxCell>
        <mxCell id="rpQ2N66B4N2WtZ1bZjir-82" value="" style="endArrow=none;html=1;rounded=0;" edge="1" parent="1">
          <mxGeometry width="50" height="50" relative="1" as="geometry">
            <mxPoint x="1640" y="320" as="sourcePoint" />
            <mxPoint x="1680" y="320" as="targetPoint" />
          </mxGeometry>
        </mxCell>
        <mxCell id="rpQ2N66B4N2WtZ1bZjir-83" value="" style="endArrow=classic;html=1;rounded=0;entryX=0.382;entryY=-0.06;entryDx=0;entryDy=0;entryPerimeter=0;" edge="1" parent="1" target="rpQ2N66B4N2WtZ1bZjir-74">
          <mxGeometry width="50" height="50" relative="1" as="geometry">
            <mxPoint x="1640" y="320" as="sourcePoint" />
            <mxPoint x="1690" y="270" as="targetPoint" />
          </mxGeometry>
        </mxCell>
        <mxCell id="rpQ2N66B4N2WtZ1bZjir-87" value="" style="endArrow=none;html=1;rounded=0;" edge="1" parent="1">
          <mxGeometry width="50" height="50" relative="1" as="geometry">
            <mxPoint x="1760" y="320" as="sourcePoint" />
            <mxPoint x="1810" y="320" as="targetPoint" />
          </mxGeometry>
        </mxCell>
        <mxCell id="rpQ2N66B4N2WtZ1bZjir-88" value="" style="endArrow=classic;html=1;rounded=0;entryX=0.5;entryY=0;entryDx=0;entryDy=0;" edge="1" parent="1" target="rpQ2N66B4N2WtZ1bZjir-75">
          <mxGeometry width="50" height="50" relative="1" as="geometry">
            <mxPoint x="1810" y="320" as="sourcePoint" />
            <mxPoint x="1860" y="270" as="targetPoint" />
          </mxGeometry>
        </mxCell>
        <mxCell id="rpQ2N66B4N2WtZ1bZjir-89" value="" style="rhombus;whiteSpace=wrap;html=1;" vertex="1" parent="1">
          <mxGeometry x="1020" y="400" width="80" height="80" as="geometry" />
        </mxCell>
      </root>
    </mxGraphModel>
  </diagram>
</mxfile>
